<svg width="140" height="40" viewBox="0 0 140 40" fill="none" xmlns="http://www.w3.org/2000/svg">
<g clip-path="url(#clip0_6658_56054)">
<path d="M44.3315 9.74345L27.362 19.4587C26.0778 20.1885 24.4268 19.2763 24.4268 17.7711V13.3468C24.4268 11.9784 25.1606 10.7013 26.3989 9.9715L43.3684 0.25621C44.6526 -0.473577 46.3037 0.438657 46.3037 1.94384V6.41379C46.3037 7.78214 45.5699 9.05927 44.3315 9.74345Z" fill="#ED6F19"/>
<path d="M22.5474 30.177L5.57785 39.8923C4.29367 40.6221 2.64258 39.7099 2.64258 38.2047V33.7804C2.64258 32.412 3.37639 31.1349 4.61471 30.4051L21.5842 20.6898C22.8684 19.96 24.5195 20.8723 24.5195 22.3774V26.8018C24.4736 28.1701 23.7398 29.4473 22.5474 30.177Z" fill="#ED6F19"/>
<path d="M45.9836 36.8807L42.0852 39.07C40.8928 39.7542 39.3793 39.7542 38.1868 39.07L24.4736 31.1792L31.2614 27.3022C32.4539 26.618 33.9674 26.618 35.1598 27.3022L45.9836 33.551C47.2678 34.2808 47.2678 36.1509 45.9836 36.8807Z" fill="white"/>
<path d="M24.519 9.01471L17.6853 12.8917C16.4929 13.5759 14.9794 13.5759 13.7869 12.8917L2.96313 6.6429C1.67895 5.91312 1.67895 4.04304 2.96313 3.26764L6.81567 1.03266C8.00813 0.348487 9.52162 0.348487 10.7141 1.03266L24.519 9.01471Z" fill="white"/>
<g filter="url(#filter0_d_6658_56054)">
<path d="M70.9446 28.6748H62.4379C59.387 28.6748 56.9463 26.2118 56.9463 23.2133V11.4693C56.9463 11.4693 56.9463 11.4336 56.9822 11.4336H60.4638C60.4638 11.4336 60.4997 11.4336 60.4997 11.4693V23.2133C60.4997 24.2842 61.3611 25.1409 62.4379 25.1409H70.9446C70.9446 25.1409 70.9805 25.1409 70.9805 25.1766L70.9446 28.6748C70.9805 28.6748 70.9805 28.6391 70.9446 28.6748Z" fill="white"/>
<path d="M82.9692 11.4336H79.3799V28.7105H82.9692V11.4336Z" fill="white"/>
<path d="M95.3881 28.6748H91.8347C91.8347 28.6748 91.7988 28.6748 91.7988 28.6391V14.4678C91.7988 13.2898 92.4808 12.1475 93.5576 11.6835C94.7062 11.1837 96.0342 11.4693 96.8598 12.3617L107.807 24.0343H107.843V11.4693C107.843 11.4693 107.843 11.4336 107.879 11.4336H111.432C111.432 11.4336 111.468 11.4336 111.468 11.4693V25.6406C111.468 26.8186 110.786 27.9609 109.71 28.4249C108.561 28.9247 107.233 28.6391 106.407 27.7467L95.4599 16.0741H95.424L95.3881 28.6748C95.424 28.6748 95.424 28.6391 95.3881 28.6748Z" fill="white"/>
<path d="M125.287 19.8946L118.073 11.399V11.3633H123.6L128.123 16.9676H128.159L132.717 11.3633H138.101C138.137 11.3633 138.137 11.399 138.101 11.399L130.886 19.8589V19.8946L138.424 28.7473V28.7829H132.896L128.051 22.8574H128.015L123.134 28.7829H117.75C117.714 28.7829 117.714 28.7473 117.75 28.7473L125.287 19.8946Z" fill="white"/>
</g>
</g>
<defs>
<filter id="filter0_d_6658_56054" x="52.9463" y="11.3633" width="89.4775" height="25.418" filterUnits="userSpaceOnUse" color-interpolation-filters="sRGB">
<feFlood flood-opacity="0" result="BackgroundImageFix"/>
<feColorMatrix in="SourceAlpha" type="matrix" values="0 0 0 0 0 0 0 0 0 0 0 0 0 0 0 0 0 0 127 0" result="hardAlpha"/>
<feOffset dy="4"/>
<feGaussianBlur stdDeviation="2"/>
<feComposite in2="hardAlpha" operator="out"/>
<feColorMatrix type="matrix" values="0 0 0 0 0 0 0 0 0 0 0 0 0 0 0 0 0 0 0.25 0"/>
<feBlend mode="normal" in2="BackgroundImageFix" result="effect1_dropShadow_6658_56054"/>
<feBlend mode="normal" in="SourceGraphic" in2="effect1_dropShadow_6658_56054" result="shape"/>
</filter>
<clipPath id="clip0_6658_56054">
<rect width="140" height="40" fill="white"/>
</clipPath>
</defs>
</svg>
